<?xml version="1.0" encoding="UTF-8"?>
<!DOCTYPE svg PUBLIC "-//W3C//DTD SVG 1.1//EN" "http://www.w3.org/Graphics/SVG/1.1/DTD/svg11.dtd">
<svg xmlns="http://www.w3.org/2000/svg" version="1.1" width="450px" height="220px" style="shape-rendering:geometricPrecision; text-rendering:geometricPrecision; image-rendering:optimizeQuality; fill-rule:evenodd; clip-rule:evenodd" xmlns:xlink="http://www.w3.org/1999/xlink">
<g><path style="opacity:1" fill="#382ae0" d="M -0.5,-0.5 C 149.5,-0.5 299.5,-0.5 449.5,-0.5C 449.5,61.8333 449.5,124.167 449.5,186.5C 448.85,186.196 448.183,185.863 447.5,185.5C 446.506,180.544 446.173,175.544 446.5,170.5C 445.5,170.5 444.5,170.5 443.5,170.5C 443.5,174.5 443.5,178.5 443.5,182.5C 439.199,180.934 435.032,178.934 431,176.5C 430.5,150.502 430.333,124.502 430.5,98.5C 428.5,98.5 426.5,98.5 424.5,98.5C 422.933,92.9742 422.266,87.3075 422.5,81.5C 421.5,81.5 420.5,81.5 419.5,81.5C 419.5,85.8333 419.5,90.1667 419.5,94.5C 410.833,94.5 402.167,94.5 393.5,94.5C 393.5,95.8333 393.5,97.1667 393.5,98.5C 391.167,98.5 388.833,98.5 386.5,98.5C 386.5,113.167 386.5,127.833 386.5,142.5C 379.5,142.5 372.5,142.5 365.5,142.5C 365.5,138.5 365.5,134.5 365.5,130.5C 364.167,130.5 362.833,130.5 361.5,130.5C 361.5,134.5 361.5,138.5 361.5,142.5C 358.833,142.5 356.167,142.5 353.5,142.5C 353.5,168.167 353.5,193.833 353.5,219.5C 351.5,219.5 349.5,219.5 347.5,219.5C 347.5,207.833 347.5,196.167 347.5,184.5C 346.5,184.5 345.5,184.5 344.5,184.5C 346.423,178.299 347.256,171.966 347,165.5C 345.915,172.06 344.415,178.394 342.5,184.5C 340.167,184.5 337.833,184.5 335.5,184.5C 335.5,170.5 335.5,156.5 335.5,142.5C 333.833,142.5 332.167,142.5 330.5,142.5C 330.517,140.435 330.85,138.435 331.5,136.5C 333.994,134.406 333.994,132.406 331.5,130.5C 330.555,125.595 330.221,120.595 330.5,115.5C 327.753,115.813 325.086,115.48 322.5,114.5C 322.137,113.817 321.804,113.15 321.5,112.5C 325.246,110.201 329.246,109.868 333.5,111.5C 328.834,107.232 324.501,107.565 320.5,112.5C 320.196,113.15 319.863,113.817 319.5,114.5C 317.031,115.168 314.698,115.835 312.5,116.5C 311.533,117.806 310.199,118.473 308.5,118.5C 308.5,116.167 308.5,113.833 308.5,111.5C 300.833,111.5 293.167,111.5 285.5,111.5C 285.5,109.167 285.5,106.833 285.5,104.5C 284.5,104.5 283.5,104.5 282.5,104.5C 282.5,106.833 282.5,109.167 282.5,111.5C 280.167,111.5 277.833,111.5 275.5,111.5C 275.5,124.5 275.5,137.5 275.5,150.5C 268.177,148.065 261.177,145.065 254.5,141.5C 254.5,141.167 254.5,140.833 254.5,140.5C 256.749,139.92 258.415,138.587 259.5,136.5C 261.492,134.072 263.825,131.906 266.5,130C 265.016,129.338 263.683,128.504 262.5,127.5C 264.833,126.833 267.167,126.167 269.5,125.5C 270.145,124.188 271.145,123.188 272.5,122.5C 273.452,120.955 273.785,119.288 273.5,117.5C 272.5,114.5 270.5,112.5 267.5,111.5C 262.03,105.705 257.363,99.3721 253.5,92.5C 253.461,91.4168 253.127,90.4168 252.5,89.5C 258.848,76.0076 254.848,67.1743 240.5,63C 235.647,62.1183 230.981,62.6183 226.5,64.5C 225.082,62.6921 223.082,62.0254 220.5,62.5C 218.933,56.9742 218.266,51.3075 218.5,45.5C 217.5,45.5 216.5,45.5 215.5,45.5C 215.5,49.8333 215.5,54.1667 215.5,58.5C 207.648,58.8254 199.982,58.492 192.5,57.5C 196.194,53.1396 200.194,49.1396 204.5,45.5C 205.167,44.5 205.833,43.5 206.5,42.5C 209.983,41.9899 213.316,41.3232 216.5,40.5C 218.167,40.5 219.833,40.5 221.5,40.5C 221.715,38.8212 221.048,37.8212 219.5,37.5C 218.571,36.6851 217.571,35.8518 216.5,35C 217.056,34.6174 217.389,34.1174 217.5,33.5C 219.751,32.1825 221.751,30.5158 223.5,28.5C 224.043,28.44 224.376,28.1067 224.5,27.5C 223.675,26.6143 222.675,26.281 221.5,26.5C 221.414,25.5041 221.748,24.6708 222.5,24C 221.552,23.5172 220.552,23.3505 219.5,23.5C 219.719,22.325 219.386,21.325 218.5,20.5C 217.893,20.6236 217.56,20.9569 217.5,21.5C 216.141,20.9935 215.141,19.9935 214.5,18.5C 213.893,18.6236 213.56,18.9569 213.5,19.5C 204.34,24.0008 196.007,29.6675 188.5,36.5C 175.66,45.1625 163.826,55.1625 153,66.5C 152.125,67.8732 151.625,69.3732 151.5,71C 153.113,79.283 155.113,87.4496 157.5,95.5C 157.5,99.5 157.5,103.5 157.5,107.5C 155.167,107.5 152.833,107.5 150.5,107.5C 150.667,119.505 150.5,131.505 150,143.5C 144.815,148.17 138.648,149.837 131.5,148.5C 131.5,134.167 131.5,119.833 131.5,105.5C 128.167,105.5 124.833,105.5 121.5,105.5C 121.5,97.8333 121.5,90.1667 121.5,82.5C 119.833,82.5 118.167,82.5 116.5,82.5C 116.5,77.8333 116.5,73.1667 116.5,68.5C 115.5,68.5 114.5,68.5 113.5,68.5C 113.5,73.1667 113.5,77.8333 113.5,82.5C 110.5,82.5 107.5,82.5 104.5,82.5C 104.5,80.5 104.5,78.5 104.5,76.5C 96.8333,76.5 89.1667,76.5 81.5,76.5C 81.5,73.8333 81.5,71.1667 81.5,68.5C 79.6203,68.2291 78.287,68.8958 77.5,70.5C 71.2297,71.8873 64.8964,72.8873 58.5,73.5C 58.5,81.1667 58.5,88.8333 58.5,96.5C 54.1194,95.5338 51.1194,97.0338 49.5,101C 51.9349,105.084 55.1016,105.584 59,102.5C 60.1092,95.6923 60.9425,88.859 61.5,82C 66.7726,80.7117 72.106,79.8784 77.5,79.5C 77.5,84.1667 77.5,88.8333 77.5,93.5C 70.281,93.6497 68.281,96.6497 71.5,102.5C 71.5,126.5 71.5,150.5 71.5,174.5C 70.1667,175.833 70.1667,177.167 71.5,178.5C 71.5,187.5 71.5,196.5 71.5,205.5C 69.5,205.5 67.5,205.5 65.5,205.5C 65.5,193.5 65.5,181.5 65.5,169.5C 63.1667,169.5 60.8333,169.5 58.5,169.5C 58.5,154.167 58.5,138.833 58.5,123.5C 53.8333,123.5 49.1667,123.5 44.5,123.5C 44.5,120.5 44.5,117.5 44.5,114.5C 43.1667,114.5 41.8333,114.5 40.5,114.5C 38.6731,140.779 38.0064,167.112 38.5,193.5C 36.1667,193.5 33.8333,193.5 31.5,193.5C 31.5,202.167 31.5,210.833 31.5,219.5C 28.5,219.5 25.5,219.5 22.5,219.5C 21.4156,196.817 20.0823,174.15 18.5,151.5C 17.5,151.5 16.5,151.5 15.5,151.5C 15.5,149.833 15.5,148.167 15.5,146.5C 10.5,146.5 5.5,146.5 0.5,146.5C 0.784479,148.415 0.451145,150.081 -0.5,151.5C -0.5,100.833 -0.5,50.1667 -0.5,-0.5 Z"/></g>
<g><path style="opacity:1" fill="#e2e1e3" d="M 213.5,19.5 C 214.525,19.8966 214.692,20.5632 214,21.5C 212.167,23.3333 210.333,25.1667 208.5,27C 211.712,25.7177 214.712,23.8844 217.5,21.5C 218.043,21.56 218.376,21.8933 218.5,22.5C 217.687,23.8139 216.687,24.9805 215.5,26C 217.412,26.2793 218.746,25.4459 219.5,23.5C 220.552,23.3505 221.552,23.5172 222.5,24C 221.748,24.6708 221.414,25.5041 221.5,26.5C 218.884,27.4798 216.551,28.9798 214.5,31C 217.141,30.1891 219.808,29.0224 222.5,27.5C 223.107,27.6236 223.44,27.9569 223.5,28.5C 221.751,30.5158 219.751,32.1825 217.5,33.5C 211.15,35.8958 211.817,37.2292 219.5,37.5C 221.048,37.8212 221.715,38.8212 221.5,40.5C 219.833,40.5 218.167,40.5 216.5,40.5C 213.482,40.3354 210.482,40.502 207.5,41C 206.944,41.3826 206.611,41.8826 206.5,42.5C 205.833,43.5 205.167,44.5 204.5,45.5C 202.284,46.2026 200.451,47.5359 199,49.5C 195.287,45.2923 191.787,40.959 188.5,36.5C 196.007,29.6675 204.34,24.0008 213.5,19.5 Z"/></g>
<g><path style="opacity:1" fill="#4b4556" d="M 213.5,19.5 C 213.56,18.9569 213.893,18.6236 214.5,18.5C 215.141,19.9935 216.141,20.9935 217.5,21.5C 214.712,23.8844 211.712,25.7177 208.5,27C 210.333,25.1667 212.167,23.3333 214,21.5C 214.692,20.5632 214.525,19.8966 213.5,19.5 Z"/></g>
<g><path style="opacity:1" fill="#3d3650" d="M 217.5,21.5 C 217.56,20.9569 217.893,20.6236 218.5,20.5C 219.386,21.325 219.719,22.325 219.5,23.5C 218.746,25.4459 217.412,26.2793 215.5,26C 216.687,24.9805 217.687,23.8139 218.5,22.5C 218.376,21.8933 218.043,21.56 217.5,21.5 Z"/></g>
<g><path style="opacity:1" fill="#443d51" d="M 221.5,26.5 C 222.675,26.281 223.675,26.6143 224.5,27.5C 224.376,28.1067 224.043,28.44 223.5,28.5C 223.44,27.9569 223.107,27.6236 222.5,27.5C 219.808,29.0224 217.141,30.1891 214.5,31C 216.551,28.9798 218.884,27.4798 221.5,26.5 Z"/></g>
<g><path style="opacity:1" fill="#6482fb" d="M 113.5,33.5 C 114.833,33.5 116.167,33.5 117.5,33.5C 117.833,36.5 116.5,37.8333 113.5,37.5C 113.5,36.1667 113.5,34.8333 113.5,33.5 Z"/></g>
<g><path style="opacity:1" fill="#3e3270" d="M 217.5,33.5 C 217.389,34.1174 217.056,34.6174 216.5,35C 217.571,35.8518 218.571,36.6851 219.5,37.5C 211.817,37.2292 211.15,35.8958 217.5,33.5 Z"/></g>
<g><path style="opacity:1" fill="#231f22" d="M 188.5,36.5 C 191.787,40.959 195.287,45.2923 199,49.5C 200.451,47.5359 202.284,46.2026 204.5,45.5C 200.194,49.1396 196.194,53.1396 192.5,57.5C 186.854,62.479 181.521,67.8123 176.5,73.5C 178.845,77.5275 181.178,81.5275 183.5,85.5C 176.841,93.4921 169.841,101.159 162.5,108.5C 161.008,104.013 159.342,99.6795 157.5,95.5C 155.113,87.4496 153.113,79.283 151.5,71C 151.625,69.3732 152.125,67.8732 153,66.5C 163.826,55.1625 175.66,45.1625 188.5,36.5 Z"/></g>
<g><path style="opacity:1" fill="#3d336c" d="M 216.5,40.5 C 213.316,41.3232 209.983,41.9899 206.5,42.5C 206.611,41.8826 206.944,41.3826 207.5,41C 210.482,40.502 213.482,40.3354 216.5,40.5 Z"/></g>
<g><path style="opacity:1" fill="#2020cc" d="M 226.5,64.5 C 224.949,67.4018 222.615,69.0685 219.5,69.5C 214.345,71.1578 210.178,74.1578 207,78.5C 203.111,85.3339 200.944,92.6673 200.5,100.5C 199.833,102.167 199.167,103.833 198.5,105.5C 194.894,98.7215 191.061,92.0548 187,85.5C 185.855,84.3157 184.688,84.3157 183.5,85.5C 181.178,81.5275 178.845,77.5275 176.5,73.5C 181.521,67.8123 186.854,62.479 192.5,57.5C 199.982,58.492 207.648,58.8254 215.5,58.5C 215.5,54.1667 215.5,49.8333 215.5,45.5C 216.5,45.5 217.5,45.5 218.5,45.5C 218.266,51.3075 218.933,56.9742 220.5,62.5C 223.082,62.0254 225.082,62.6921 226.5,64.5 Z"/></g>
<g><path style="opacity:1" fill="#6687fd" d="M 35.5,50.5 C 41.0159,50.4734 42.3492,52.64 39.5,57C 34.5705,57.427 33.2372,55.2604 35.5,50.5 Z"/></g>
<g><path style="opacity:1" fill="#6687fd" d="M 392.5,58.5 C 398.016,58.4734 399.349,60.64 396.5,65C 391.57,65.427 390.237,63.2604 392.5,58.5 Z"/></g>
<g><path style="opacity:1" fill="#1f1fcd" d="M 157.5,95.5 C 159.342,99.6795 161.008,104.013 162.5,108.5C 162.297,110.044 161.63,111.378 160.5,112.5C 163.333,118.833 166.167,125.167 169,131.5C 169.579,132.928 169.412,134.262 168.5,135.5C 166.407,136.045 164.407,136.878 162.5,138C 164.197,138.384 165.863,138.218 167.5,137.5C 159.739,164.254 155.739,191.587 155.5,219.5C 114.167,219.5 72.8333,219.5 31.5,219.5C 31.5,210.833 31.5,202.167 31.5,193.5C 33.8333,193.5 36.1667,193.5 38.5,193.5C 38.0064,167.112 38.6731,140.779 40.5,114.5C 41.8333,114.5 43.1667,114.5 44.5,114.5C 44.5,117.5 44.5,120.5 44.5,123.5C 49.1667,123.5 53.8333,123.5 58.5,123.5C 58.5,138.833 58.5,154.167 58.5,169.5C 60.8333,169.5 63.1667,169.5 65.5,169.5C 65.5,181.5 65.5,193.5 65.5,205.5C 67.5,205.5 69.5,205.5 71.5,205.5C 71.5,196.5 71.5,187.5 71.5,178.5C 79.8265,179.642 82.6598,175.976 80,167.5C 79.5065,169.134 79.3398,170.801 79.5,172.5C 76.4867,172.107 73.8201,172.774 71.5,174.5C 71.5,150.5 71.5,126.5 71.5,102.5C 74.505,102.747 77.005,101.747 79,99.5C 79.1667,94.6667 79.3333,89.8333 79.5,85C 79.4937,79.7843 78.8271,74.951 77.5,70.5C 78.287,68.8958 79.6203,68.2291 81.5,68.5C 81.5,71.1667 81.5,73.8333 81.5,76.5C 89.1667,76.5 96.8333,76.5 104.5,76.5C 104.5,78.5 104.5,80.5 104.5,82.5C 107.5,82.5 110.5,82.5 113.5,82.5C 113.5,77.8333 113.5,73.1667 113.5,68.5C 114.5,68.5 115.5,68.5 116.5,68.5C 116.5,73.1667 116.5,77.8333 116.5,82.5C 118.167,82.5 119.833,82.5 121.5,82.5C 121.5,90.1667 121.5,97.8333 121.5,105.5C 124.833,105.5 128.167,105.5 131.5,105.5C 131.5,119.833 131.5,134.167 131.5,148.5C 138.648,149.837 144.815,148.17 150,143.5C 150.5,131.505 150.667,119.505 150.5,107.5C 152.833,107.5 155.167,107.5 157.5,107.5C 157.5,103.5 157.5,99.5 157.5,95.5 Z"/></g>
<g><path style="opacity:1" fill="#f6f6f6" d="M 232.5,69.5 C 233.791,69.2627 234.791,69.596 235.5,70.5C 235.973,71.9063 236.973,72.573 238.5,72.5C 240.5,75.1667 242.833,77.5 245.5,79.5C 247.89,81.2666 249.557,83.5999 250.5,86.5C 249.822,91.8691 247.988,96.8691 245,101.5C 243.691,99.1088 242.691,99.1088 242,101.5C 240.186,108.778 237.686,115.778 234.5,122.5C 226.904,123.879 220.57,121.546 215.5,115.5C 214.353,117.765 214.186,120.098 215,122.5C 217.314,126.215 220.147,129.382 223.5,132C 220.543,140.579 215.709,141.746 209,135.5C 205.797,131.392 204.297,126.725 204.5,121.5C 206.232,117.303 207.565,112.969 208.5,108.5C 210.099,108.768 211.432,108.434 212.5,107.5C 215.428,106.409 217.594,104.409 219,101.5C 219.711,98.266 220.545,95.0994 221.5,92C 219.805,90.2678 218.472,88.2678 217.5,86C 219.163,80.5051 221.496,75.3384 224.5,70.5C 227.086,69.52 229.753,69.1866 232.5,69.5 Z"/></g>
<g><path style="opacity:1" fill="#c779f2" d="M 77.5,70.5 C 78.8271,74.951 79.4937,79.7843 79.5,85C 79.3333,89.8333 79.1667,94.6667 79,99.5C 77.005,101.747 74.505,102.747 71.5,102.5C 68.281,96.6497 70.281,93.6497 77.5,93.5C 77.5,88.8333 77.5,84.1667 77.5,79.5C 72.106,79.8784 66.7726,80.7117 61.5,82C 60.9425,88.859 60.1092,95.6923 59,102.5C 55.1016,105.584 51.9349,105.084 49.5,101C 51.1194,97.0338 54.1194,95.5338 58.5,96.5C 58.5,88.8333 58.5,81.1667 58.5,73.5C 64.8964,72.8873 71.2297,71.8873 77.5,70.5 Z"/></g>
<g><path style="opacity:1" fill="#e2e1e4" d="M 219.5,69.5 C 220.675,69.281 221.675,69.6143 222.5,70.5C 219.32,75.0416 217.32,80.0416 216.5,85.5C 208.21,86.8117 204.21,91.8117 204.5,100.5C 204.383,103.44 205.05,106.107 206.5,108.5C 205.527,110.139 204.194,111.473 202.5,112.5C 201.752,110.668 200.752,109.001 199.5,107.5C 200.468,105.393 200.802,103.059 200.5,100.5C 200.944,92.6673 203.111,85.3339 207,78.5C 210.178,74.1578 214.345,71.1578 219.5,69.5 Z"/></g>
<g><path style="opacity:1" fill="#b2b0b1" d="M 174.5,72.5 C 175.525,72.8966 175.692,73.5632 175,74.5C 173.26,76.9535 171.093,78.4535 168.5,79C 170.706,76.9633 172.706,74.7966 174.5,72.5 Z"/></g>
<g><path style="opacity:1" fill="#6686fd" d="M 377.5,77.5 C 380.5,77.1667 381.833,78.5 381.5,81.5C 380.167,81.5 378.833,81.5 377.5,81.5C 377.5,80.1667 377.5,78.8333 377.5,77.5 Z"/></g>
<g><path style="opacity:1" fill="#1e1fcd" d="M 449.5,186.5 C 449.5,197.5 449.5,208.5 449.5,219.5C 417.5,219.5 385.5,219.5 353.5,219.5C 353.5,193.833 353.5,168.167 353.5,142.5C 356.167,142.5 358.833,142.5 361.5,142.5C 361.5,138.5 361.5,134.5 361.5,130.5C 362.833,130.5 364.167,130.5 365.5,130.5C 365.5,134.5 365.5,138.5 365.5,142.5C 372.5,142.5 379.5,142.5 386.5,142.5C 386.5,127.833 386.5,113.167 386.5,98.5C 388.833,98.5 391.167,98.5 393.5,98.5C 393.5,97.1667 393.5,95.8333 393.5,94.5C 402.167,94.5 410.833,94.5 419.5,94.5C 419.5,90.1667 419.5,85.8333 419.5,81.5C 420.5,81.5 421.5,81.5 422.5,81.5C 422.266,87.3075 422.933,92.9742 424.5,98.5C 426.5,98.5 428.5,98.5 430.5,98.5C 430.333,124.502 430.5,150.502 431,176.5C 435.032,178.934 439.199,180.934 443.5,182.5C 443.5,178.5 443.5,174.5 443.5,170.5C 444.5,170.5 445.5,170.5 446.5,170.5C 446.173,175.544 446.506,180.544 447.5,185.5C 448.183,185.863 448.85,186.196 449.5,186.5 Z"/></g>
<g><path style="opacity:1" fill="#2d292d" d="M 253.5,92.5 C 252.883,92.3893 252.383,92.056 252,91.5C 250.519,94.9561 248.852,98.2895 247,101.5C 246.696,105.548 246.196,109.548 245.5,113.5C 245.233,110.628 244.899,107.628 244.5,104.5C 243.67,107.821 243.003,111.154 242.5,114.5C 242.762,115.978 242.429,117.311 241.5,118.5C 238.651,119.086 236.318,120.42 234.5,122.5C 237.686,115.778 240.186,108.778 242,101.5C 242.691,99.1088 243.691,99.1088 245,101.5C 247.988,96.8691 249.822,91.8691 250.5,86.5C 252.045,85.7703 252.878,84.437 253,82.5C 254.15,73.6105 250.317,67.7772 241.5,65C 237.833,64.3333 234.167,64.3333 230.5,65C 228.884,65.6152 227.551,66.6152 226.5,68C 228.708,68.1909 230.708,68.6909 232.5,69.5C 229.753,69.1866 227.086,69.52 224.5,70.5C 221.496,75.3384 219.163,80.5051 217.5,86C 218.472,88.2678 219.805,90.2678 221.5,92C 220.545,95.0994 219.711,98.266 219,101.5C 217.594,104.409 215.428,106.409 212.5,107.5C 210.379,107.325 208.379,107.659 206.5,108.5C 205.05,106.107 204.383,103.44 204.5,100.5C 204.21,91.8117 208.21,86.8117 216.5,85.5C 217.32,80.0416 219.32,75.0416 222.5,70.5C 221.675,69.6143 220.675,69.281 219.5,69.5C 222.615,69.0685 224.949,67.4018 226.5,64.5C 230.981,62.6183 235.647,62.1183 240.5,63C 254.848,67.1743 258.848,76.0076 252.5,89.5C 253.127,90.4168 253.461,91.4168 253.5,92.5 Z"/></g>
<g><path style="opacity:1" fill="#504673" d="M 238.5,72.5 C 241.833,73.8333 244.167,76.1667 245.5,79.5C 242.833,77.5 240.5,75.1667 238.5,72.5 Z"/></g>
<g><path style="opacity:1" fill="#473f63" d="M 235.5,70.5 C 237.027,70.427 238.027,71.0937 238.5,72.5C 236.973,72.573 235.973,71.9063 235.5,70.5 Z"/></g>
<g><path style="opacity:1" fill="#3729db" d="M 250.5,86.5 C 249.557,83.5999 247.89,81.2666 245.5,79.5C 244.167,76.1667 241.833,73.8333 238.5,72.5C 238.027,71.0937 237.027,70.427 235.5,70.5C 234.791,69.596 233.791,69.2627 232.5,69.5C 230.708,68.6909 228.708,68.1909 226.5,68C 227.551,66.6152 228.884,65.6152 230.5,65C 234.167,64.3333 237.833,64.3333 241.5,65C 250.317,67.7772 254.15,73.6105 253,82.5C 252.878,84.437 252.045,85.7703 250.5,86.5 Z"/></g>
<g><path style="opacity:1" fill="#f6f6f7" d="M 253.5,92.5 C 257.363,99.3721 262.03,105.705 267.5,111.5C 269.167,113.833 271.167,115.833 273.5,117.5C 273.785,119.288 273.452,120.955 272.5,122.5C 271.145,123.188 270.145,124.188 269.5,125.5C 266.753,125.187 264.086,125.52 261.5,126.5C 261.624,127.107 261.957,127.44 262.5,127.5C 263.683,128.504 265.016,129.338 266.5,130C 263.825,131.906 261.492,134.072 259.5,136.5C 257.251,137.08 255.585,138.413 254.5,140.5C 254.5,140.833 254.5,141.167 254.5,141.5C 244.899,137.634 235.233,133.967 225.5,130.5C 225.357,128.738 225.691,127.071 226.5,125.5C 228.766,124.686 231.1,124.186 233.5,124C 234.056,123.617 234.389,123.117 234.5,122.5C 236.318,120.42 238.651,119.086 241.5,118.5C 242.429,117.311 242.762,115.978 242.5,114.5C 243.895,115.815 244.895,115.481 245.5,113.5C 246.196,109.548 246.696,105.548 247,101.5C 248.852,98.2895 250.519,94.9561 252,91.5C 252.383,92.056 252.883,92.3893 253.5,92.5 Z"/></g>
<g><path style="opacity:1" fill="#c578f2" d="M 306.5,71.5 C 314.433,73.3575 317.933,78.3575 317,86.5C 314.758,82.0808 311.258,79.4141 306.5,78.5C 305.935,84.9911 304.602,91.3244 302.5,97.5C 299.451,99.466 296.118,99.966 292.5,99C 289.674,96.4781 290.007,94.4781 293.5,93C 296.531,92.5046 299.531,92.6713 302.5,93.5C 303.964,86.1787 305.298,78.8453 306.5,71.5 Z"/></g>
<g><path style="opacity:1" fill="#bab9b9" d="M 214.5,88.5 C 216.017,90.4621 216.684,92.7954 216.5,95.5C 216.996,99.1714 215.829,102.171 213,104.5C 214.182,101.588 215.016,98.4214 215.5,95C 215.212,92.813 214.878,90.6463 214.5,88.5 Z"/></g>
<g><path style="opacity:1" fill="#333368" d="M 200.5,100.5 C 200.802,103.059 200.468,105.393 199.5,107.5C 199.167,106.833 198.833,106.167 198.5,105.5C 199.167,103.833 199.833,102.167 200.5,100.5 Z"/></g>
<g><path style="opacity:1" fill="#1e1fcb" d="M 312.5,116.5 C 312.5,121.167 312.5,125.833 312.5,130.5C 309.801,130.466 307.301,131.133 305,132.5C 303.837,138.438 303.003,144.438 302.5,150.5C 297.936,155.948 293.602,161.615 289.5,167.5C 289.167,167.5 288.833,167.5 288.5,167.5C 283.833,164.167 279.167,160.833 274.5,157.5C 275.74,156.027 276.74,154.36 277.5,152.5C 276.757,151.818 276.091,151.151 275.5,150.5C 275.5,137.5 275.5,124.5 275.5,111.5C 277.833,111.5 280.167,111.5 282.5,111.5C 282.5,109.167 282.5,106.833 282.5,104.5C 283.5,104.5 284.5,104.5 285.5,104.5C 285.5,106.833 285.5,109.167 285.5,111.5C 293.167,111.5 300.833,111.5 308.5,111.5C 308.5,113.833 308.5,116.167 308.5,118.5C 310.199,118.473 311.533,117.806 312.5,116.5 Z"/></g>
<g><path style="opacity:1" fill="#2e2477" d="M 333.5,111.5 C 329.246,109.868 325.246,110.201 321.5,112.5C 321.167,112.5 320.833,112.5 320.5,112.5C 324.501,107.565 328.834,107.232 333.5,111.5 Z"/></g>
<g><path style="opacity:1" fill="#8d8b8c" d="M 245.5,113.5 C 244.895,115.481 243.895,115.815 242.5,114.5C 243.003,111.154 243.67,107.821 244.5,104.5C 244.899,107.628 245.233,110.628 245.5,113.5 Z"/></g>
<g><path style="opacity:1" fill="#2b2263" d="M 333.5,111.5 C 336.323,112.148 337.823,113.814 338,116.5C 336.293,114.963 334.793,113.296 333.5,111.5 Z"/></g>
<g><path style="opacity:1" fill="#737876" d="M 212.5,107.5 C 211.432,108.434 210.099,108.768 208.5,108.5C 207.565,112.969 206.232,117.303 204.5,121.5C 204.167,121.5 203.833,121.5 203.5,121.5C 204.672,118.169 205.506,114.836 206,111.5C 205,112.5 204,113.5 203,114.5C 202.536,113.906 202.369,113.239 202.5,112.5C 204.194,111.473 205.527,110.139 206.5,108.5C 208.379,107.659 210.379,107.325 212.5,107.5 Z"/></g>
<g><path style="opacity:1" fill="#50476c" d="M 267.5,111.5 C 270.5,112.5 272.5,114.5 273.5,117.5C 271.167,115.833 269.167,113.833 267.5,111.5 Z"/></g>
<g><path style="opacity:1" fill="#2d282e" d="M 320.5,112.5 C 320.833,112.5 321.167,112.5 321.5,112.5C 321.804,113.15 322.137,113.817 322.5,114.5C 325.086,115.48 327.753,115.813 330.5,115.5C 330.221,120.595 330.555,125.595 331.5,130.5C 330.167,132.5 330.167,134.5 331.5,136.5C 330.85,138.435 330.517,140.435 330.5,142.5C 330.5,146.167 330.5,149.833 330.5,153.5C 326.731,153.244 323.064,153.577 319.5,154.5C 317.393,153.532 315.059,153.198 312.5,153.5C 311.957,147.454 311.957,141.454 312.5,135.5C 313.768,134.572 315.101,134.405 316.5,135C 314.611,138.836 313.945,143.003 314.5,147.5C 318.833,147.5 323.167,147.5 327.5,147.5C 327.5,138.167 327.5,128.833 327.5,119.5C 323.167,119.5 318.833,119.5 314.5,119.5C 314.5,122.833 314.5,126.167 314.5,129.5C 316.833,129.5 319.167,129.5 321.5,129.5C 321.934,132.166 320.934,133.333 318.5,133C 319.167,132.333 319.833,131.667 320.5,131C 317.854,130.503 315.187,130.336 312.5,130.5C 312.5,125.833 312.5,121.167 312.5,116.5C 314.698,115.835 317.031,115.168 319.5,114.5C 319.863,113.817 320.196,113.15 320.5,112.5 Z"/></g>
<g><path style="opacity:1" fill="#74e8c7" d="M 198.5,105.5 C 198.833,106.167 199.167,106.833 199.5,107.5C 200.752,109.001 201.752,110.668 202.5,112.5C 202.369,113.239 202.536,113.906 203,114.5C 204,113.5 205,112.5 206,111.5C 205.506,114.836 204.672,118.169 203.5,121.5C 198.906,134.219 199.739,146.552 206,158.5C 210,162.5 214,162.5 218,158.5C 222.09,149.464 224.59,140.131 225.5,130.5C 235.233,133.967 244.899,137.634 254.5,141.5C 261.177,145.065 268.177,148.065 275.5,150.5C 276.091,151.151 276.757,151.818 277.5,152.5C 276.74,154.36 275.74,156.027 274.5,157.5C 269.144,164.198 264.144,171.198 259.5,178.5C 258.173,179.8 256.84,181.133 255.5,182.5C 249.086,179.211 242.919,175.544 237,171.5C 236.536,172.094 236.369,172.761 236.5,173.5C 234.896,174.287 234.229,175.62 234.5,177.5C 232.054,182.24 230.054,187.24 228.5,192.5C 227.833,192.5 227.5,192.833 227.5,193.5C 220.32,191.716 213.653,192.716 207.5,196.5C 214.033,194.794 220.699,194.128 227.5,194.5C 227.5,194.833 227.5,195.167 227.5,195.5C 232.5,203.5 237.5,211.5 242.5,219.5C 213.5,219.5 184.5,219.5 155.5,219.5C 155.739,191.587 159.739,164.254 167.5,137.5C 168.338,137.158 168.672,136.492 168.5,135.5C 169.412,134.262 169.579,132.928 169,131.5C 166.167,125.167 163.333,118.833 160.5,112.5C 161.63,111.378 162.297,110.044 162.5,108.5C 169.841,101.159 176.841,93.4921 183.5,85.5C 184.688,84.3157 185.855,84.3157 187,85.5C 191.061,92.0548 194.894,98.7215 198.5,105.5 Z"/></g>
<g><path style="opacity:1" fill="#4e485e" d="M 269.5,125.5 C 267.167,126.167 264.833,126.833 262.5,127.5C 261.957,127.44 261.624,127.107 261.5,126.5C 264.086,125.52 266.753,125.187 269.5,125.5 Z"/></g>
<g><path style="opacity:1" fill="#2e2364" d="M 342.5,123.5 C 345.544,128.303 347.377,133.636 348,139.5C 348.667,147.167 348.667,154.833 348,162.5C 348.353,149.141 346.52,136.141 342.5,123.5 Z"/></g>
<g><path style="opacity:1" fill="#282626" d="M 234.5,122.5 C 234.389,123.117 234.056,123.617 233.5,124C 231.1,124.186 228.766,124.686 226.5,125.5C 225.691,127.071 225.357,128.738 225.5,130.5C 224.59,140.131 222.09,149.464 218,158.5C 214,162.5 210,162.5 206,158.5C 199.739,146.552 198.906,134.219 203.5,121.5C 203.833,121.5 204.167,121.5 204.5,121.5C 204.297,126.725 205.797,131.392 209,135.5C 215.709,141.746 220.543,140.579 223.5,132C 220.147,129.382 217.314,126.215 215,122.5C 214.186,120.098 214.353,117.765 215.5,115.5C 220.57,121.546 226.904,123.879 234.5,122.5 Z"/></g>
<g><path style="opacity:1" fill="#ececed" d="M 319.5,154.5 C 318.662,154.842 318.328,155.508 318.5,156.5C 317.094,156.973 316.427,157.973 316.5,159.5C 310.345,158.445 305.678,155.445 302.5,150.5C 303.003,144.438 303.837,138.438 305,132.5C 307.301,131.133 309.801,130.466 312.5,130.5C 315.187,130.336 317.854,130.503 320.5,131C 319.833,131.667 319.167,132.333 318.5,133C 320.934,133.333 321.934,132.166 321.5,129.5C 319.167,129.5 316.833,129.5 314.5,129.5C 314.5,126.167 314.5,122.833 314.5,119.5C 318.833,119.5 323.167,119.5 327.5,119.5C 327.5,128.833 327.5,138.167 327.5,147.5C 323.167,147.5 318.833,147.5 314.5,147.5C 313.945,143.003 314.611,138.836 316.5,135C 315.101,134.405 313.768,134.572 312.5,135.5C 311.957,141.454 311.957,147.454 312.5,153.5C 315.059,153.198 317.393,153.532 319.5,154.5 Z"/></g>
<g><path style="opacity:1" fill="#b0abbb" d="M 331.5,130.5 C 333.994,132.406 333.994,134.406 331.5,136.5C 330.167,134.5 330.167,132.5 331.5,130.5 Z"/></g>
<g><path style="opacity:1" fill="#262367" d="M 168.5,135.5 C 168.672,136.492 168.338,137.158 167.5,137.5C 165.863,138.218 164.197,138.384 162.5,138C 164.407,136.878 166.407,136.045 168.5,135.5 Z"/></g>
<g><path style="opacity:1" fill="#41337f" d="M 259.5,136.5 C 258.415,138.587 256.749,139.92 254.5,140.5C 255.585,138.413 257.251,137.08 259.5,136.5 Z"/></g>
<g><path style="opacity:1" fill="#241f61" d="M 157.5,139.5 C 158.552,139.351 159.552,139.517 160.5,140C 158.35,141.59 156.017,142.257 153.5,142C 155.066,141.392 156.4,140.558 157.5,139.5 Z"/></g>
<g><path style="opacity:1" fill="#2020cd" d="M 330.5,142.5 C 332.167,142.5 333.833,142.5 335.5,142.5C 335.5,156.5 335.5,170.5 335.5,184.5C 337.833,184.5 340.167,184.5 342.5,184.5C 341.833,187.5 341.167,190.5 340.5,193.5C 342.205,190.739 343.538,187.739 344.5,184.5C 345.5,184.5 346.5,184.5 347.5,184.5C 347.5,196.167 347.5,207.833 347.5,219.5C 312.5,219.5 277.5,219.5 242.5,219.5C 237.5,211.5 232.5,203.5 227.5,195.5C 230.574,195.873 233.574,196.539 236.5,197.5C 233.796,195.829 231.129,194.163 228.5,192.5C 230.054,187.24 232.054,182.24 234.5,177.5C 235.674,176.486 236.34,175.153 236.5,173.5C 236.369,172.761 236.536,172.094 237,171.5C 242.919,175.544 249.086,179.211 255.5,182.5C 256.84,181.133 258.173,179.8 259.5,178.5C 267.11,183.312 274.777,188.145 282.5,193C 285.826,194.913 289.326,196.413 293,197.5C 296.913,195.023 299.913,191.689 302,187.5C 307.114,178.27 311.948,168.937 316.5,159.5C 317.906,159.027 318.573,158.027 318.5,156.5C 318.328,155.508 318.662,154.842 319.5,154.5C 323.064,153.577 326.731,153.244 330.5,153.5C 330.5,149.833 330.5,146.167 330.5,142.5 Z"/></g>
<g><path style="opacity:1" fill="#1e1fcd" d="M 22.5,219.5 C 14.8333,219.5 7.16667,219.5 -0.5,219.5C -0.5,196.833 -0.5,174.167 -0.5,151.5C 0.451145,150.081 0.784479,148.415 0.5,146.5C 5.5,146.5 10.5,146.5 15.5,146.5C 15.5,148.167 15.5,149.833 15.5,151.5C 16.5,151.5 17.5,151.5 18.5,151.5C 20.0823,174.15 21.4156,196.817 22.5,219.5 Z"/></g>
<g><path style="opacity:1" fill="#c277f0" d="M 77.5,152.5 C 83.4625,152.98 86.9625,155.98 88,161.5C 85.5084,159.503 82.675,158.503 79.5,158.5C 79.6633,160.857 79.4966,163.19 79,165.5C 78.4167,161.168 77.9167,156.835 77.5,152.5 Z"/></g>
<g><path style="opacity:1" fill="#241f5a" d="M 140.5,151.5 C 141.043,151.56 141.376,151.893 141.5,152.5C 135.556,160.285 135.222,159.952 140.5,151.5 Z"/></g>
<g><path style="opacity:1" fill="#231f22" d="M 302.5,150.5 C 305.678,155.445 310.345,158.445 316.5,159.5C 311.948,168.937 307.114,178.27 302,187.5C 299.913,191.689 296.913,195.023 293,197.5C 289.326,196.413 285.826,194.913 282.5,193C 274.777,188.145 267.11,183.312 259.5,178.5C 264.144,171.198 269.144,164.198 274.5,157.5C 279.167,160.833 283.833,164.167 288.5,167.5C 290.573,170.037 293.24,171.204 296.5,171C 294.14,169.82 291.807,168.653 289.5,167.5C 293.602,161.615 297.936,155.948 302.5,150.5 Z"/></g>
<g><path style="opacity:1" fill="#413a65" d="M 318.5,156.5 C 318.573,158.027 317.906,159.027 316.5,159.5C 316.427,157.973 317.094,156.973 318.5,156.5 Z"/></g>
<g><path style="opacity:1" fill="#c075f0" d="M 390.5,148.5 C 391.833,148.5 393.167,148.5 394.5,148.5C 393.627,153.534 392.627,158.534 391.5,163.5C 394.833,163.5 396.5,165.167 396.5,168.5C 392.802,169.32 390.469,167.987 389.5,164.5C 390.508,160.482 391.508,156.482 392.5,152.5C 389.568,152.454 386.902,152.954 384.5,154C 386.071,151.591 388.071,149.758 390.5,148.5 Z"/></g>
<g><path style="opacity:1" fill="#adabac" d="M 288.5,167.5 C 288.833,167.5 289.167,167.5 289.5,167.5C 291.807,168.653 294.14,169.82 296.5,171C 293.24,171.204 290.573,170.037 288.5,167.5 Z"/></g>
<g><path style="opacity:1" fill="#c377f0" d="M 71.5,178.5 C 70.1667,177.167 70.1667,175.833 71.5,174.5C 73.8201,172.774 76.4867,172.107 79.5,172.5C 79.3398,170.801 79.5065,169.134 80,167.5C 82.6598,175.976 79.8265,179.642 71.5,178.5 Z"/></g>
<g><path style="opacity:1" fill="#2d3660" d="M 236.5,173.5 C 236.34,175.153 235.674,176.486 234.5,177.5C 234.229,175.62 234.896,174.287 236.5,173.5 Z"/></g>
<g><path style="opacity:1" fill="#241f59" d="M 134.5,196.5 C 133.073,194.852 132.24,192.852 132,190.5C 131.333,183.167 131.333,175.833 132,168.5C 132.803,165.756 133.803,163.089 135,160.5C 133.602,166.681 132.769,173.015 132.5,179.5C 132.648,185.238 133.315,190.905 134.5,196.5 Z"/></g>
<g><path style="opacity:1" fill="#2a2265" d="M 344.5,184.5 C 343.538,187.739 342.205,190.739 340.5,193.5C 341.167,190.5 341.833,187.5 342.5,184.5C 344.415,178.394 345.915,172.06 347,165.5C 347.256,171.966 346.423,178.299 344.5,184.5 Z"/></g>
<g><path style="opacity:1" fill="#436d61" d="M 179.5,183.5 C 193.31,187.98 207.31,189.146 221.5,187C 220.051,188.117 218.384,188.784 216.5,189C 204.602,190.191 192.936,189.024 181.5,185.5C 180.287,185.253 179.62,184.586 179.5,183.5 Z"/></g>
<g><path style="opacity:1" fill="#467669" d="M 227.5,193.5 C 227.5,193.833 227.5,194.167 227.5,194.5C 220.699,194.128 214.033,194.794 207.5,196.5C 213.653,192.716 220.32,191.716 227.5,193.5 Z"/></g>
<g><path style="opacity:1" fill="#242165" d="M 228.5,192.5 C 231.129,194.163 233.796,195.829 236.5,197.5C 233.574,196.539 230.574,195.873 227.5,195.5C 227.5,195.167 227.5,194.833 227.5,194.5C 227.5,194.167 227.5,193.833 227.5,193.5C 227.5,192.833 227.833,192.5 228.5,192.5 Z"/></g>
<g><path style="opacity:1" fill="#231f60" d="M 340.5,193.5 C 340.245,196.016 339.411,198.35 338,200.5C 337.705,197.758 338.538,195.425 340.5,193.5 Z"/></g>
<g><path style="opacity:1" fill="#241f5d" d="M 236.5,197.5 C 240.049,198.723 243.049,200.723 245.5,203.5C 241.975,202.241 238.975,200.241 236.5,197.5 Z"/></g>
<g><path style="opacity:1" fill="#3e6157" d="M 207.5,196.5 C 205.821,198.175 203.821,199.008 201.5,199C 203.158,197.337 205.158,196.504 207.5,196.5 Z"/></g>
<g><path style="opacity:1" fill="#241f59" d="M 134.5,196.5 C 136.835,199.5 138.335,202.834 139,206.5C 136.676,203.52 135.176,200.187 134.5,196.5 Z"/></g>
<g><path style="opacity:1" fill="#241f61" d="M 245.5,203.5 C 249.737,206.228 253.571,209.561 257,213.5C 257.667,214.167 257.667,214.833 257,215.5C 252.963,211.631 249.13,207.631 245.5,203.5 Z"/></g>
<g><path style="opacity:1" fill="#241f60" d="M 335.5,202.5 C 335.973,204.97 335.139,207.304 333,209.5C 333.22,207.037 334.054,204.704 335.5,202.5 Z"/></g>
<g><path style="opacity:1" fill="#251f61" d="M 141.5,209.5 C 143.63,211.127 145.63,212.96 147.5,215C 144.474,214.481 142.474,212.648 141.5,209.5 Z"/></g>
</svg>
